<?xml version="1.0" encoding="utf-8"?>
<!-- Svg Vector Icons : http://www.onlinewebfonts.com/icon -->
<!DOCTYPE svg PUBLIC "-//W3C//DTD SVG 1.1//EN" "http://www.w3.org/Graphics/SVG/1.1/DTD/svg11.dtd">
<svg version="1.1" xmlns="http://www.w3.org/2000/svg" xmlns:xlink="http://www.w3.org/1999/xlink" x="0px" y="0px" viewBox="0 0 1000 1000" enable-background="new 0 0 1000 1000" xml:space="preserve">
<metadata> Svg Vector Icons : http://www.onlinewebfonts.com/icon </metadata>
<g><g><path stroke="#ffffff44" fill="#ffffff44" d="M979.6,10.2c-280.5,0-719.7,0-961,0c-81.7,296.6,446.9,434.3,446.9,462c0,27.7,2.1,157-0.3,260.4c0,135.6-149.3,214-220.4,243.6c-15.3,6.9-10.8,13.7,0,13.7c10.3,0,234,0,256.7,0c1.1,0,2.3,0,2.3,0c22.6,0,246.4,0,256.7,0c10.8,0,15.3-6.9,0-13.7C689.3,946.5,540,868.2,540,732.5c-2.4-103.3-0.3-232.7-0.3-260.4C539.6,444.5,1070.2,306.8,979.6,10.2z M376.5,349.4c-43.5-16.9-99.1-45.4-149.4-83.4c-24.7-19.3-48.7-40.4-68.2-63.4c-19.7-22.7-35.3-47.2-44.2-70.4c-9.4-23.1-10.9-44.5-8.9-59c0.4-7.3,2.6-12.1,3.7-15.7c1.1-3.5,1.7-5.4,1.7-5.4c0.4-0.2,0.5,8.3,4.5,20.8c3.5,12.1,11.3,28.7,24.1,45.7c25.6,34.4,70.2,72.2,117.6,107.7c47.1,35.9,96.5,70.5,133,98c36.8,27.1,60.8,47.7,60.8,47.7S419.9,366.6,376.5,349.4z"/></g><g></g><g></g><g></g><g></g><g></g><g></g><g></g><g></g><g></g><g></g><g></g><g></g><g></g><g></g><g></g></g>
</svg>